<svg xmlns="http://www.w3.org/2000/svg" width="64" height="64" viewBox="0 0 64 64">
  <!-- White rounded background -->
  <rect width="64" height="64" rx="12" ry="12" fill="#ffffff"/>

  <!-- Scaled up violet icon with thicker stroke -->
  <g transform="translate(8, 8) scale(2)">
    <path d="M19 14c1.49-1.46 3-3.21 3-5.5A5.5 5.5 0 0 0 16.5 3c-1.76 0-3 .5-4.5 2-1.5-1.5-2.74-2-4.5-2A5.5 5.5 0 0 0 2 8.5c0 2.3 1.5 4.05 3 5.5l7 7Z" fill="none" stroke="#4f46e5" stroke-width="3" stroke-linecap="round" stroke-linejoin="round"/>
    <path d="M12 5 9.04 7.96a2.17 2.17 0 0 0 0 3.08c.82.82 2.13.85 3 .07l2.07-1.9a2.82 2.82 0 0 1 3.79 0l2.96 2.66" fill="none" stroke="#4f46e5" stroke-width="3" stroke-linecap="round" stroke-linejoin="round"/>
    <path d="m18 15-2-2" fill="none" stroke="#4f46e5" stroke-width="3" stroke-linecap="round" stroke-linejoin="round"/>
    <path d="m15 18-2-2" fill="none" stroke="#4f46e5" stroke-width="3" stroke-linecap="round" stroke-linejoin="round"/>
  </g>
</svg>
